#N canvas 117 133 883 649 16;
#X obj 9 282 loadbang;
#X obj 10 315 delay 500;
#X msg 50 117 0, f 2;
#X msg 4 114 1, f 2;
#X obj 26 18 receive pulse;
#X obj 100 501 send pulse;
#X obj 26 48 t b;
#X obj 17 181 wiringPi_gpio 4 0 0;
#X obj 342 139 wiringPi_gpio 5 1 0;
#X obj 549 332 timer;
#X obj 694 175 route 0 1;
#X obj 586 137 wiringPi_gpio 5 1 0;
#X obj 361 202 route 0 1;
#X obj 365 268 t b;
#X floatatom 547 363 10 0 0 0 - - -, f 10;
#X obj 342 108 r m1;
#X obj 586 105 r m2;
#X obj 418 302 s m2;
#X obj 92 152 s m1;
#X obj 34 731 dac~;
#X obj 316 457 s m1;
#X msg 105 118 bang;
#X msg 418 271 bang;
#X obj 539 250 t b;
#X obj 719 288 s m2;
#X msg 722 227 bang;
#X obj 317 306 f;
#X obj 357 306 + 1;
#X floatatom 316 336 5 0 0 0 - - -, f 5;
#X obj 317 365 moses 1000;
#X obj 317 399 t b;
#X msg 279 302 0, f 2;
#X obj 145 152 s clear;
#X obj 277 267 r clear;
#X obj 66 82 delay 0.01;
#X obj 318 428 delay 0.001;
#X obj 720 258 delay 0.001;
#X obj 629 786 mtof;
#X obj 627 846 line;
#X floatatom 628 880 5 0 0 0 - - -, f 5;
#X obj 659 490 moses 0.14;
#X obj 587 521 moses 0.12625;
#X obj 524 553 moses 0.1125;
#X obj 456 591 moses 0.09875;
#X obj 397 624 moses 0.085, f 13;
#X obj 328 656 moses 0.07125;
#X obj 272 690 moses 0.0575;
#X obj 191 725 moses 0.04375;
#X obj 627 814 pack 0 50;
#X floatatom 622 735 5 0 0 0 - - -, f 5;
#X obj 625 703 + 60;
#X msg 763 521 0;
#X msg 705 551 2;
#X msg 650 585 4;
#X msg 583 624 5;
#X msg 526 658 7;
#X msg 451 692 9;
#X msg 384 726 11;
#X msg 315 765 12;
#X text 679 704 any major key;
#X obj 37 689 *~ 0.3;
#X obj 629 911 s pitch;
#X obj 28 598 r pitch;
#X floatatom 84 635 5 0 0 0 - - -, f 5;
#X floatatom 80 916 5 0 0 0 - - -, f 5;
#X obj 27 853 bng 15 250 50 0 empty empty empty 17 7 0 10 -262144 -1
-1;
#X msg 211 941 \; pd dsp 1;
#X obj 27 883 wiringPi_gpio 28 1 0;
#X obj 27 1004 wiringPi_gpio 29 1 1;
#X obj 388 929 print;
#X obj 26 948 route 0 1;
#X obj 24 1045 route 0 1;
#X msg 199 1052 \; pd dsp 0;
#X obj 22 643 osc~;
#X obj 56 844 metro 150;
#X obj 133 565 phasor~;
#X obj 185 597 +~;
#X obj 195 635 wrap~;
#X obj 223 564 phasor~;
#X msg 257 527 0.5;
#X msg 212 530 0;
#X obj 255 495 bng 15 250 50 0 empty empty empty 17 7 0 10 -262144
-1 -1;
#X obj 551 402 moses 0.17;
#X obj 96 775 loadbang;
#X msg 94 809 1;
#X msg 43 805 0;
#X obj 113 384 loadbang;
#X msg 111 418 1;
#X msg 60 414 0;
#X obj 45 468 bng 15 250 50 0 empty empty empty 17 7 0 10 -262144 -1
-1;
#X obj 99 462 metro 50;
#X connect 0 0 1 0;
#X connect 2 0 7 0;
#X connect 3 0 7 0;
#X connect 4 0 6 0;
#X connect 6 0 3 0;
#X connect 6 0 34 0;
#X connect 8 0 12 0;
#X connect 9 0 14 0;
#X connect 10 1 23 0;
#X connect 10 1 25 0;
#X connect 11 0 10 0;
#X connect 12 0 13 0;
#X connect 12 1 22 0;
#X connect 12 1 23 0;
#X connect 13 0 9 0;
#X connect 13 0 26 0;
#X connect 14 0 82 0;
#X connect 15 0 8 0;
#X connect 16 0 11 0;
#X connect 21 0 18 0;
#X connect 21 0 32 0;
#X connect 22 0 17 0;
#X connect 23 0 9 1;
#X connect 25 0 36 0;
#X connect 26 0 28 0;
#X connect 27 0 26 1;
#X connect 28 0 27 0;
#X connect 28 0 29 0;
#X connect 29 0 30 0;
#X connect 30 0 35 0;
#X connect 31 0 26 0;
#X connect 33 0 31 0;
#X connect 34 0 2 0;
#X connect 34 0 21 0;
#X connect 35 0 20 0;
#X connect 36 0 24 0;
#X connect 37 0 48 0;
#X connect 38 0 39 0;
#X connect 39 0 61 0;
#X connect 40 0 41 0;
#X connect 40 1 51 0;
#X connect 41 0 42 0;
#X connect 41 1 52 0;
#X connect 42 0 43 0;
#X connect 42 1 53 0;
#X connect 43 0 44 0;
#X connect 43 1 54 0;
#X connect 44 0 45 0;
#X connect 44 1 55 0;
#X connect 45 0 46 0;
#X connect 45 1 56 0;
#X connect 46 0 47 0;
#X connect 46 1 57 0;
#X connect 47 1 58 0;
#X connect 48 0 38 0;
#X connect 49 0 37 0;
#X connect 50 0 49 0;
#X connect 51 0 50 0;
#X connect 52 0 50 0;
#X connect 53 0 50 0;
#X connect 54 0 50 0;
#X connect 55 0 50 0;
#X connect 56 0 50 0;
#X connect 57 0 50 0;
#X connect 58 0 50 0;
#X connect 60 0 19 0;
#X connect 60 0 19 1;
#X connect 62 0 63 0;
#X connect 62 0 73 0;
#X connect 62 0 75 0;
#X connect 62 0 78 0;
#X connect 65 0 67 0;
#X connect 67 0 64 0;
#X connect 67 0 70 0;
#X connect 68 0 71 0;
#X connect 70 1 66 0;
#X connect 71 1 72 0;
#X connect 73 0 60 0;
#X connect 74 0 67 0;
#X connect 74 0 68 0;
#X connect 75 0 76 0;
#X connect 76 0 77 0;
#X connect 78 0 76 1;
#X connect 79 0 78 1;
#X connect 80 0 75 1;
#X connect 81 0 80 0;
#X connect 81 0 79 0;
#X connect 82 0 40 0;
#X connect 83 0 84 0;
#X connect 84 0 74 0;
#X connect 85 0 74 0;
#X connect 86 0 87 0;
#X connect 87 0 90 0;
#X connect 88 0 90 0;
#X connect 89 0 5 0;
#X connect 90 0 5 0;
