#N canvas 60 165 883 580 16;
#X text 378 538 delay half a second to settle;
#X obj 185 269 loadbang;
#X obj 186 302 delay 500;
#X msg 88 123 0, f 2;
#X msg 41 90 1, f 2;
#X obj 64 24 receive pulse;
#X obj 100 501 send pulse;
#X obj 64 54 t b;
#X floatatom 55 159 5 0 0 0 - - -, f 5;
#X obj 55 187 wiringPi_gpio 4 0 0;
#X obj 343 107 bng 15 250 50 0 empty empty empty 17 7 0 10 -262144
-1 -1;
#X obj 372 79 tgl 15 0 empty empty empty 17 7 0 10 -262144 -1 -1 0
1;
#X obj 342 139 wiringPi_gpio 5 1 0;
#X obj 597 420 timer;
#X obj 620 103 bng 15 250 50 0 empty empty empty 17 7 0 10 -262144
-1 -1;
#X obj 649 75 tgl 15 0 empty empty empty 17 7 0 10 -262144 -1 -1 0
1;
#X obj 727 173 route 0 1;
#X obj 619 135 wiringPi_gpio 5 1 0;
#X obj 361 202 route 0 1;
#X msg 143 124 1, f 2;
#X msg 437 304 0, f 2;
#X msg 486 247 1, f 2;
#X obj 367 383 t b;
#X msg 623 222 0, f 2;
#X floatatom 596 449 10 0 0 0 - - -, f 10;
#X obj 128 406 tgl 15 0 empty empty empty 17 7 0 10 -262144 -1 -1 0
1;
#X obj 104 88 delay 0.01;
#X floatatom 596 512 10 0 0 0 - - -, f 10;
#X obj 372 48 r m1;
#X obj 649 43 r m2;
#X obj 623 254 s m2;
#X obj 486 281 s m2;
#X obj 436 337 s m1;
#X obj 278 505 s m1;
#X obj 133 156 s m1;
#X msg 240 470 0, f 2;
#X obj 220 503 s m2;
#X obj 379 98 metro 0.001;
#X obj 648 98 metro 0.001;
#X obj 596 480 moses 0.5;
#X obj 130 434 metro 50;
#X connect 1 0 2 0;
#X connect 3 0 8 0;
#X connect 4 0 8 0;
#X connect 5 0 7 0;
#X connect 7 0 4 0;
#X connect 7 0 26 0;
#X connect 8 0 9 0;
#X connect 10 0 12 0;
#X connect 11 0 37 0;
#X connect 12 0 18 0;
#X connect 13 0 24 0;
#X connect 14 0 17 0;
#X connect 15 0 38 0;
#X connect 16 0 23 0;
#X connect 16 1 13 1;
#X connect 17 0 16 0;
#X connect 18 0 22 0;
#X connect 18 1 21 0;
#X connect 18 1 20 0;
#X connect 19 0 34 0;
#X connect 20 0 32 0;
#X connect 21 0 31 0;
#X connect 22 0 13 0;
#X connect 23 0 30 0;
#X connect 24 0 39 0;
#X connect 25 0 40 0;
#X connect 26 0 3 0;
#X connect 26 0 19 0;
#X connect 28 0 11 0;
#X connect 29 0 15 0;
#X connect 35 0 36 0;
#X connect 35 0 33 0;
#X connect 37 0 12 0;
#X connect 38 0 17 0;
#X connect 39 0 27 0;
#X connect 40 0 6 0;
#X connect 40 0 35 0;
